<svg width="61" height="49" viewBox="0 0 61 49" fill="none" xmlns="http://www.w3.org/2000/svg">
<path fill-rule="evenodd" clip-rule="evenodd" d="M2.68495 45.1724H2.51058C2.51058 45.1025 2.46691 44.9972 2.46691 44.9619C2.46691 44.9271 2.46691 44.8572 2.33589 44.8572H2.07386V45.1724H1.94285V44.4362H2.33589C2.51058 44.4362 2.64128 44.4715 2.64128 44.6113C2.64128 44.7166 2.59761 44.7519 2.55425 44.7865C2.59792 44.8218 2.64128 44.8569 2.64128 44.9271V45.0671C2.64128 45.1025 2.64128 45.1025 2.68495 45.1025V45.1724ZM2.51058 44.6467C2.51058 44.5414 2.42324 44.5414 2.37956 44.5414H2.07386V44.7519H2.33589C2.42324 44.7519 2.51058 44.7166 2.51058 44.6467V44.6467ZM3.25268 44.7867C3.25268 44.3663 2.81628 44.0152 2.24855 44.0152C1.7248 44.0152 1.28809 44.3663 1.28809 44.7867C1.28809 45.2425 1.7248 45.5936 2.24855 45.5936C2.81597 45.5933 3.25268 45.2425 3.25268 44.7867ZM3.12167 44.7867C3.12167 45.1726 2.72894 45.453 2.24855 45.453C1.76816 45.453 1.4191 45.1724 1.4191 44.7867C1.4191 44.4362 1.76848 44.1205 2.24855 44.1205C2.72862 44.1205 3.12167 44.4362 3.12167 44.7867ZM56.9057 30.6195C56.9057 31.6717 56.0762 32.162 54.5917 32.162H51.7546V31.1099H54.5917C54.8537 31.1099 55.0721 31.0751 55.1598 31.0051C55.2468 30.9347 55.3341 30.8295 55.3341 30.6894C55.3341 30.5488 55.2471 30.4088 55.1598 30.3389C55.0721 30.2685 54.8977 30.2336 54.6357 30.2336C53.2828 30.1983 51.5799 30.2685 51.5799 28.7257C51.5799 28.0241 52.1474 27.2525 53.6752 27.2525H56.6V28.3047H53.8933C53.6319 28.3047 53.4569 28.3047 53.3259 28.3746C53.1948 28.4799 53.1078 28.5851 53.1078 28.7605C53.1078 28.9359 53.2388 29.0411 53.4132 29.1116C53.5882 29.1464 53.7629 29.1815 53.9813 29.1815H54.7667C55.5962 29.1815 56.1202 29.3215 56.4696 29.5673C56.731 29.8127 56.9057 30.1286 56.9057 30.6195V30.6195ZM50.7502 29.5673C50.4008 29.3215 49.8767 29.1815 49.0473 29.1815H48.2618C48.0438 29.1815 47.8688 29.1461 47.6944 29.1116C47.5194 29.0411 47.389 28.9359 47.389 28.7605C47.389 28.5851 47.4324 28.4799 47.6071 28.3746C47.7381 28.3047 47.9125 28.3047 48.1745 28.3047H50.8812V27.2525H47.9565C46.3846 27.2525 45.8605 28.0241 45.8605 28.7257C45.8605 30.2682 47.5634 30.1983 48.9169 30.2336C49.1783 30.2336 49.3533 30.2685 49.4403 30.3389C49.5274 30.4088 49.6153 30.5488 49.6153 30.6894C49.6153 30.8295 49.5277 30.9347 49.4403 31.0051C49.3093 31.0751 49.135 31.1099 48.8729 31.1099H46.0352V32.162H48.8729C50.3568 32.162 51.1866 31.6714 51.1866 30.6195C51.1866 30.1286 51.0122 29.8127 50.7502 29.5673V29.5673ZM45.1621 31.1455H41.7139V30.1635H45.0751V29.182H41.7139V28.2699H45.1621V27.253H40.2731V32.1623H45.1621V31.1455ZM38.7012 27.4986C38.2208 27.2881 37.6534 27.2528 36.9113 27.2528H33.5501V32.162H35.034V30.3737H36.6059C37.1293 30.3737 37.4354 30.409 37.6537 30.5842C37.9157 30.8295 37.9157 31.2505 37.9157 31.5662V32.162H39.356V31.2151C39.356 30.7593 39.3126 30.5488 39.1379 30.3035C39.0069 30.163 38.7455 29.9878 38.3961 29.8826C38.7885 29.7778 39.4439 29.3569 39.4439 28.5851C39.4436 28.0243 39.1816 27.7086 38.7012 27.4986V27.4986ZM30.4067 27.2528H25.7354L23.8582 28.866L22.0683 27.2528H16.1748V32.162H21.9812L23.8585 30.5488L25.6484 32.162H28.4861V30.5143H30.3197C31.5855 30.5143 32.852 30.2336 32.852 28.866C32.8517 27.5334 31.5419 27.2528 30.4067 27.2528ZM37.5224 29.287C37.3043 29.3569 37.086 29.3569 36.8239 29.3569L35.034 29.3922V28.2696H36.8239C37.086 28.2696 37.348 28.2696 37.5224 28.3749C37.6974 28.4453 37.8278 28.5853 37.8278 28.7958C37.8278 29.0063 37.6974 29.1817 37.5224 29.287V29.287ZM30.4067 29.5323H28.4858V28.2696H30.4067C30.9308 28.2696 31.2798 28.4453 31.2798 28.866C31.2798 29.287 30.9305 29.5323 30.4067 29.5323ZM24.775 29.7074L27.0449 27.779V31.7416L24.775 29.7074ZM21.2388 31.1455H17.6153V30.1635H20.8458V29.182H17.6153V28.2699H21.2825L22.8977 29.7077L21.2388 31.1455V31.1455ZM52.8455 23.7109H50.7502L47.9998 20.0287V23.7109H45.0317L44.4637 22.6237H41.4079L40.8405 23.7109H39.1376C38.4392 23.7109 37.5224 23.5706 36.9989 23.1496C36.5186 22.7289 36.2565 22.1679 36.2565 21.2911C36.2565 20.5547 36.3875 19.8884 37.042 19.3624C37.4784 18.9766 38.2645 18.8014 39.2683 18.8014H40.6652V19.8536H39.2683C38.7449 19.8536 38.4389 19.9237 38.1335 20.1342C37.8714 20.3447 37.7404 20.7303 37.7404 21.2563C37.7404 21.7822 37.8714 22.1681 38.1335 22.4137C38.3515 22.5888 38.7449 22.659 39.1373 22.659H39.7924L41.8877 18.8017H44.0706L46.5153 23.4305V18.8014H48.7856L51.3613 22.203V18.8014H52.8452V23.7109H52.8455V23.7109ZM35.5144 18.8014H34.0305V23.7109H35.5144V18.8014V18.8014ZM32.4147 19.0119C31.9343 18.8014 31.4109 18.8014 30.6688 18.8014H27.307V23.7109H28.7475V21.9223H30.3191C30.8431 21.9223 31.1925 21.9574 31.4105 22.1328C31.6726 22.3784 31.6286 22.7993 31.6286 23.0797V23.7109H33.1125V22.7289C33.1125 22.3082 33.0691 22.0977 32.8511 21.8522C32.7201 21.7118 32.458 21.5364 32.1526 21.4314C32.5451 21.2911 33.2005 20.9055 33.2005 20.134C33.2008 19.5729 32.8948 19.2572 32.4147 19.0119ZM26.2592 22.6941H22.854V21.7121H26.2155V20.6953H22.854V19.8185H26.2592V18.8017H21.3698V23.7112H26.2592V22.6941ZM20.2784 18.8014H17.8774L16.0874 22.1328L14.1665 18.8014H11.8092V23.4303L9.32085 18.8014H7.13821L4.51885 23.7109H6.0904L6.65782 22.6237H9.71358L10.281 23.7109H13.2497V19.8536L15.3887 23.7109H16.6545L18.7938 19.8536V23.7109H20.278V18.8014H20.2784ZM43.9402 21.5718L42.9358 19.6431L41.932 21.5718H43.9402ZM31.2798 20.8005C31.0618 20.9057 30.8434 20.9057 30.5377 20.9057H28.7475V19.8188H30.5374C30.7995 19.8188 31.1045 19.8188 31.2795 19.8889C31.4539 19.9942 31.5416 20.1345 31.5416 20.3447C31.5416 20.5549 31.4542 20.7301 31.2798 20.8005V20.8005ZM7.18156 21.5718L8.1857 19.6431L9.18983 21.5718H7.18156V21.5718ZM56.5566 3.40662H4.47486V21.0809L6.26477 17.8197H10.0626L10.5867 18.6263V17.8197H15.0396L16.0438 19.5729L17.0042 17.8197H31.1925C31.8469 17.8197 32.4144 17.9249 32.8514 18.2053V17.8197H36.7366V18.2053C37.391 17.9247 38.2205 17.8197 39.1813 17.8197H44.8127L45.3368 18.6263V17.8197H49.484L50.0954 18.6263V17.8197H54.155V24.6929H50.0517L49.2663 23.641V24.6929H44.1583L43.5909 23.5709H42.3244L41.757 24.6929H39.0942C38.0464 24.6929 37.2603 24.4824 36.7369 24.2722V24.6929H30.4067V23.1148C30.4067 22.9043 30.3631 22.8692 30.1884 22.8692H29.9703V24.6927H17.7463V23.8159L17.3099 24.6927H14.7342L14.2978 23.851V24.6927H9.36452L8.84077 23.5706H7.57461L7.00719 24.6927H4.47486V45.4179H56.5566V32.8283C55.9892 33.0388 55.2031 33.144 54.4173 33.144H50.6192V32.7231C50.1828 33.004 49.3967 33.144 48.6549 33.144H36.6929V31.5662C36.6929 31.3557 36.6496 31.3557 36.4309 31.3557H36.2129V33.144H32.2837V31.2855C31.6292 31.5308 30.8868 31.5308 30.232 31.5308H29.7953V33.144H24.9933L23.8585 32.0919L22.5926 33.144H14.8649V26.271H22.723L23.8582 27.3227L25.0807 26.271H30.3631C30.9738 26.271 31.9783 26.341 32.4147 26.6915V26.271H37.1293C37.6097 26.271 38.5268 26.341 39.1376 26.6915V26.271H46.2536V26.6918C46.6466 26.4111 47.389 26.2713 48.0435 26.2713H52.016V26.6918C52.4531 26.4464 53.0638 26.2713 53.8499 26.2713H56.5566V3.40662V3.40662Z" fill="black"/>
</svg>
